<svg width="208" height="272" viewBox="0 0 208 272" fill="none" xmlns="http://www.w3.org/2000/svg">
<path d="M0 24C0 10.7452 10.7452 0 24 0H160.466C166.886 0 173.039 2.5724 177.548 7.1422L201.083 30.9903C205.515 35.4817 208 41.538 208 47.8481V248C208 261.255 197.255 272 184 272H24C10.7452 272 0 261.255 0 248V24Z" fill="#F7F2E8"/>
<rect x="42" y="110" width="14" height="20" fill="#D03462"/>
<rect x="127" y="110" width="20" height="20" fill="#D03462"/>
<rect x="56" y="80" width="26" height="20" fill="#3462D0"/>
<path d="M147 80H186V100H147V80Z" fill="#3462D0"/>
<rect x="22" y="50" width="20" height="20" fill="#62D034"/>
<path d="M82 50H127V70H82V50Z" fill="#62D034"/>
<path d="M34.9062 216V181.091H49.9744C52.5653 181.091 54.8324 181.562 56.7756 182.506C58.7188 183.449 60.2301 184.807 61.3097 186.58C62.3892 188.352 62.929 190.477 62.929 192.955C62.929 195.455 62.3722 197.562 61.2585 199.278C60.1563 200.994 58.6051 202.29 56.6051 203.165C54.6165 204.04 52.2926 204.477 49.6335 204.477H40.6335V197.114H47.7244C48.8381 197.114 49.7869 196.977 50.571 196.705C51.3665 196.42 51.9744 195.972 52.3949 195.358C52.8267 194.744 53.0426 193.943 53.0426 192.955C53.0426 191.955 52.8267 191.142 52.3949 190.517C51.9744 189.881 51.3665 189.415 50.571 189.119C49.7869 188.812 48.8381 188.659 47.7244 188.659H44.3835V216H34.9062ZM55.3608 199.977L64.0881 216H53.7926L45.2699 199.977H55.3608ZM66.0142 188.727V181.091H96.3551V188.727H85.8551V216H76.5142V188.727H66.0142ZM98.9673 188.727V181.091H129.308V188.727H118.808V216H109.467V188.727H98.9673ZM132.875 181.091H144.67L152.784 200.864H153.193L161.307 181.091H173.102V216H163.83V195.818H163.557L155.784 215.727H150.193L142.42 195.682H142.148V216H132.875V181.091Z" fill="black"/>
</svg>
